<svg enable-background="new 0 0 48.625 48.625" height="48.625" viewBox="0 0 48.625 48.625" width="48.625" xmlns="http://www.w3.org/2000/svg"><path d="m35.432 10.815.047.361-.541.112-.072.769h.648l.862-.083.445-.529-.473-.184-.259-.298-.389-.63-.186-.891-.731.149-.205.314v.354l.352.241z"/><path d="m34.809 11.111.039-.482-.429-.185-.6.139-.445.714v.463h.519z"/><path d="m22.459 13.158-.132.34h-.639v.33h.152s.009.07.022.162l.392-.033.245-.152.064-.307.317-.027.125-.258-.291-.06z"/><path d="m20.812 13.757-.025.323.463-.039.048-.324-.278-.219z"/><path d="m48.619 24.061c-.007-.711-.043-1.417-.11-2.112-.225-2.317-.779-4.538-1.609-6.62-.062-.155-.119-.312-.185-.465-1.106-2.613-2.659-4.992-4.56-7.045-.125-.134-.252-.266-.379-.396-.359-.373-.728-.737-1.11-1.086-4.322-3.935-10.062-6.337-16.354-6.337-6.345 0-12.126 2.445-16.46 6.44-1.01.931-1.938 1.947-2.78 3.035-3.176 4.108-5.072 9.254-5.072 14.837 0 13.407 10.907 24.313 24.313 24.313 9.43 0 17.617-5.4 21.647-13.268.862-1.682 1.533-3.475 1.985-5.354.115-.477.214-.956.3-1.441.245-1.381.379-2.801.379-4.25.001-.084-.004-.167-.005-.251zm-4.576-9.717.141-.158c.185.359.358.724.523 1.094l-.23-.009-.434.06zm-3.513-4.242.004-1.086c.382.405.75.822 1.102 1.254l-.438.652-1.531-.014-.096-.319zm-29.328-2.699v-.041h.487l.042-.167h.797v.348l-.229.306h-1.098zm.778 1.085s.487-.083.529-.083 0 .486 0 .486l-1.098.069-.209-.25zm33.612 9.651h-1.779l-1.084-.807-1.141.111v.696h-.361l-.39-.278-1.976-.501v-1.28l-2.504.195-.776.417h-.994l-.487-.049-1.207.67v1.261l-2.467 1.78.205.76h.5l-.131.724-.352.129-.019 1.892 2.132 2.428h.928l.056-.148h1.668l.481-.445h.946l.519.52 1.41.146-.187 1.875 1.565 2.763-.824 1.575.056.742.649.647v1.784l.852 1.146v1.482h.736c-4.096 5.029-10.33 8.25-17.305 8.25-12.302.001-22.311-10.009-22.311-22.312 0-3.097.636-6.049 1.781-8.732v-.696l.798-.969c.277-.523.574-1.033.891-1.53l.036.405-.926 1.125c-.287.542-.555 1.096-.798 1.665v1.27l.927.446v1.765l.889 1.517.723.111.093-.52-.853-1.316-.167-1.279h.5l.211 1.316 1.233 1.799-.318.581.784 1.199 1.947.482v-.315l.779.111-.074.556.612.112.945.258 1.335 1.521 1.705.129.167 1.391-1.167.816-.055 1.242-.167.76 1.688 2.113.129.724s.612.166.687.166c.074 0 1.372.983 1.372.983v3.819l.463.13-.315 1.762.779 1.039-.144 1.746 1.029 1.809 1.321 1.154 1.328.024.13-.427-.976-.822.056-.408.175-.5.037-.51-.66-.02-.333-.418.548-.527.074-.398-.612-.175.036-.37.872-.132 1.326-.637.445-.816 1.391-1.78-.316-1.392.427-.741 1.279.039.861-.682.278-2.686.955-1.213.167-.779-.871-.279-.575-.943-1.965-.02-1.558-.594-.074-1.111-.52-.909-1.409-.021-.814-1.278-.723-.353-.037.39-1.316.078-.482-.671-1.373-.279-1.131 1.307-1.78-.302-.129-2.006-1.299-.222.521-.984-.149-.565-1.707 1.141-1.074-.131-.383-.839.234-.865.592-1.091 1.363-.69 2.632-.001-.007.803.946.44-.075-1.372.682-.686 1.376-.904.094-.636 1.372-1.428 1.459-.808-.129-.106.988-.93.362.096.166.208.375-.416.092-.041-.411-.058-.417-.139v-.4l.221-.181h.487l.223.098.193.39.236-.036v-.034l.068.023.684-.105.097-.334.39.098v.362l-.362.249h.001l.053.397 1.239.382s.001.005.003.015l.285-.024.019-.537-.982-.447-.056-.258.815-.278.036-.78-.852-.519-.056-1.315-1.168.574h-.426l.112-1.001-1.59-.375-.658.497v1.516l-1.183.375-.474.988-.514.083v-1.264l-1.112-.154-.556-.362-.224-.819 1.989-1.164.973-.296.098.654.542-.028.042-.329.567-.081.01-.115-.244-.101-.056-.348.697-.059.421-.438.023-.032.005.002.128-.132 1.465-.185.648.55-1.699.905 2.162.51.28-.723h.945l.334-.63-.668-.167v-.797l-2.095-.928-1.446.167-.816.427.056 1.038-.853-.13-.131-.574.817-.742-1.483-.074-.426.129-.185.5.556.094-.111.556-.945.056-.148.37-1.371.038s-.038-.778-.093-.778 1.075-.019 1.075-.019l.817-.798-.446-.223-.593.576-.984-.056-.593-.816h-1.261l-1.316.983h1.206l.11.353-.313.291 1.335.037.204.482-1.503-.056-.073-.371-.945-.204-.501-.278-1.125.009c3.683-2.683 8.212-4.271 13.107-4.271 5.642 0 10.797 2.109 14.73 5.574l-.265.474-1.029.403-.434.471.1.549.531.074.32.8.916-.369.151 1.07h-.276l-.752-.111-.834.14-.807 1.14-1.154.181-.167.988.487.115-.141.635-1.146-.23-1.051.23-.223.585.182 1.228.617.289 1.035-.006.699-.063.213-.556 1.092-1.419.719.147.708-.64.132.5 1.742 1.175-.213.286-.785-.042.302.428.483.106.566-.236-.012-.682.251-.126-.202-.214-1.162-.648-.306-.861h.966l.309.306.832.717.035.867.862.918.321-1.258.597-.326.112 1.029.583.64 1.163-.02c.225.579.427 1.168.604 1.769zm-32.331-7.093.584-.278.528.126-.182.709-.57.181zm3.099 1.669v.459h-1.334l-.5-.139.125-.32.641-.265h.876v.265zm.614.64v.445l-.334.215-.416.077s0-.667 0-.737zm-.376-.181v-.529l.459.418zm.209 1.07v.433l-.319.32h-.709l.111-.486.335-.029.069-.167zm-1.766-.889h.737l-.945 1.321-.39-.209.084-.556zm3.018.737v.432h-.709l-.194-.28v-.402h.056zm-.655-.594.202-.212.341.212-.273.225zm28.55 5.767.07-.082c.029.126.06.252.088.38z"/><path d="m3.782 14.884v.696c.243-.568.511-1.122.798-1.665z"/></svg>