<?xml version="1.0" encoding="utf-8"?>
<!-- Generator: Adobe Illustrator 22.1.0, SVG Export Plug-In . SVG Version: 6.00 Build 0)  -->
<svg version="1.1" id="Layer_1" xmlns="http://www.w3.org/2000/svg" xmlns:xlink="http://www.w3.org/1999/xlink" x="0px" y="0px"
	 viewBox="0 0 2566.4 2728.2" style="enable-background:new 0 0 2566.4 2728.2;" xml:space="preserve">
<style type="text/css">
	.st0{fill:#F7F7F7;}
	.st1{fill:#FB1048;}
</style>
<rect x="153" y="873.5" class="st0" width="245.3" height="245.3"/>
<rect x="398.3" y="873.5" class="st0" width="245.3" height="245.3"/>
<rect x="643.6" y="873.5" class="st0" width="245.3" height="245.3"/>
<rect x="889" y="873.5" class="st0" width="245.3" height="245.3"/>
<rect x="1134.3" y="873.5" class="st0" width="245.3" height="245.3"/>
<rect x="1379.6" y="873.5" class="st0" width="245.3" height="245.3"/>
<rect x="1624.9" y="873.5" class="st0" width="245.3" height="245.3"/>
<rect x="1870.2" y="873.4" class="st0" width="245.3" height="245.3"/>
<rect x="2115.6" y="873.5" class="st0" width="245.3" height="245.3"/>
<rect x="911.1" y="652.6" class="st0" width="167.2" height="167.2"/>
<rect x="1134.3" y="574.4" class="st0" width="245.3" height="245.3"/>
<rect x="1435.6" y="652.6" class="st0" width="167.2" height="167.2"/>
<rect x="230.3" y="1908.4" class="st0" width="245.3" height="245.3"/>
<rect x="230.3" y="1663.1" class="st0" width="245.3" height="245.3"/>
<rect x="230.3" y="1417.8" class="st0" width="245.3" height="245.3"/>
<rect x="531.6" y="1908.4" class="st0" width="245.3" height="245.3"/>
<rect x="531.6" y="1663.1" class="st0" width="245.3" height="245.3"/>
<rect x="531.6" y="1417.8" class="st0" width="245.3" height="245.3"/>
<rect x="833" y="1908.4" class="st0" width="245.3" height="245.3"/>
<rect x="833" y="1663.1" class="st0" width="245.3" height="245.3"/>
<rect x="833" y="1417.8" class="st0" width="245.3" height="245.3"/>
<rect x="1134.3" y="1908.4" class="st0" width="245.3" height="245.3"/>
<rect x="1134.3" y="1663.1" class="st0" width="245.3" height="245.3"/>
<rect x="1134.3" y="1417.8" class="st0" width="245.3" height="245.3"/>
<rect x="1435.6" y="1908.4" class="st0" width="245.3" height="245.3"/>
<rect x="1435.6" y="1663.1" class="st0" width="245.3" height="245.3"/>
<rect x="1435.6" y="1417.8" class="st0" width="245.3" height="245.3"/>
<rect x="1736.9" y="1908.4" class="st1" width="245.3" height="245.3"/>
<rect x="1736.9" y="1663.1" class="st1" width="245.3" height="245.3"/>
<rect x="1736.9" y="1417.8" class="st1" width="245.3" height="245.3"/>
<rect x="2038.3" y="1908.4" class="st1" width="245.3" height="245.3"/>
<rect x="2038.3" y="1663.1" class="st1" width="245.3" height="245.3"/>
<rect x="2038.3" y="1417.8" class="st1" width="245.3" height="245.3"/>
<rect x="230.3" y="1172.5" class="st0" width="245.3" height="245.3"/>
<rect x="531.6" y="1172.5" class="st0" width="245.3" height="245.3"/>
<rect x="833" y="1172.5" class="st0" width="245.3" height="245.3"/>
<rect x="1134.3" y="1172.5" class="st0" width="245.3" height="245.3"/>
<rect x="1435.6" y="1172.5" class="st0" width="245.3" height="245.3"/>
<rect x="1736.9" y="1172.5" class="st1" width="245.3" height="245.3"/>
<rect x="2038.3" y="1172.5" class="st1" width="245.3" height="245.3"/>
</svg>
